<svg width="25" height="25" viewBox="0 0 25 25" fill="none" xmlns="http://www.w3.org/2000/svg">
<g clip-path="url(#clip0_92_103)">
<path d="M2.08337 6.24992C2.08337 4.28573 2.08337 3.30364 2.69357 2.69345C3.30376 2.08325 4.28585 2.08325 6.25004 2.08325C8.21423 2.08325 9.19632 2.08325 9.80651 2.69345C10.4167 3.30364 10.4167 4.28573 10.4167 6.24992V18.7499C10.4167 20.7141 10.4167 21.6962 9.80651 22.3064C9.19632 22.9166 8.21423 22.9166 6.25004 22.9166C4.28585 22.9166 3.30376 22.9166 2.69357 22.3064C2.08337 21.6962 2.08337 20.7141 2.08337 18.7499V6.24992Z" stroke="#006FFF" stroke-width="3.75"/>
<path d="M14.5834 6.24992C14.5834 4.28573 14.5834 3.30364 15.1936 2.69345C15.8038 2.08325 16.7859 2.08325 18.75 2.08325C20.7142 2.08325 21.6963 2.08325 22.3065 2.69345C22.9167 3.30364 22.9167 4.28573 22.9167 6.24992V18.7499C22.9167 20.7141 22.9167 21.6962 22.3065 22.3064C21.6963 22.9166 20.7142 22.9166 18.75 22.9166C16.7859 22.9166 15.8038 22.9166 15.1936 22.3064C14.5834 21.6962 14.5834 20.7141 14.5834 18.7499V6.24992Z" stroke="#006FFF" stroke-width="3.75"/>
</g>
<defs>
<clipPath id="clip0_92_103">
<rect width="25" height="25" fill="white"/>
</clipPath>
</defs>
</svg>
